<?xml version="1.0" encoding="iso-8859-1"?>
<!-- Generator: Adobe Illustrator 19.0.0, SVG Export Plug-In . SVG Version: 6.00 Build 0)  -->
<svg version="1.1" id="Layer_1" xmlns="http://www.w3.org/2000/svg" xmlns:xlink="http://www.w3.org/1999/xlink" x="0px" y="0px"
	 viewBox="0 0 512.006 512.006" style="enable-background:new 0 0 512.006 512.006;" xml:space="preserve">
<circle style="fill:#83CF8F;" cx="256.003" cy="256.003" r="256.003"/>
<path style="fill:#6C7678;" d="M36.852,77.433h220.343c7.239,0,13.159,5.92,13.159,13.159V226.33H23.687V90.592
	c0-7.239,5.92-13.159,13.159-13.159H36.852z"/>
<path style="fill:#FEFEFE;" d="M32.63,217.392h228.793V90.598c0-2.307-1.921-4.222-4.222-4.222H36.858
	c-2.307,0-4.228,1.921-4.228,4.222V217.392z"/>
<path style="fill:#E4E7ED;" d="M5.318,226.33h283.418v7.601c0,4.18-3.421,7.601-7.601,7.601H12.918c-4.18,0-7.601-3.421-7.601-7.601
	V226.33z"/>
<polygon style="fill:#C6CBD6;" points="120.019,228.558 174.035,228.558 168.248,232.4 125.8,232.4 "/>
<path style="fill:#6C7678;" d="M254.805,270.475h220.343c7.239,0,13.159,5.92,13.159,13.159v135.738H241.639V283.635
	c0-7.239,5.92-13.159,13.159-13.159H254.805z"/>
<path style="fill:#FEFEFE;" d="M250.577,410.435H479.37V283.641c0-2.307-1.921-4.222-4.222-4.222H254.805
	c-2.307,0-4.222,1.921-4.222,4.222v126.794H250.577z"/>
<path style="fill:#E4E7ED;" d="M223.27,419.372h283.418v7.601c0,4.18-3.421,7.601-7.601,7.601H230.871
	c-4.18,0-7.601-3.421-7.601-7.601V419.372z"/>
<polygon style="fill:#C6CBD6;" points="337.965,421.601 391.987,421.601 386.2,425.443 343.752,425.443 "/>
<g>
	<path style="fill:#FFFFFF;" d="M373.908,138.375v-22.127l44.495,44.519l-44.531,44.483l0.006-24.169L373.908,138.375z
		 M323.95,170.325v-21.194h-15.442v21.194H323.95z M345.686,174.77v-30.077h-15.448v30.077H345.686z M367.421,181.082v-42.706
		h-15.448v42.706H367.421z"/>
	<path style="fill:#FFFFFF;" d="M138.092,328.883v-22.127l-44.495,44.519l44.537,44.483l-0.006-24.169l-0.03-42.706H138.092z
		 M188.05,360.833v-21.194h15.448v21.194H188.05z M166.314,365.271v-30.077h15.448v30.077H166.314z M144.579,371.589v-42.706h15.448
		v42.706H144.579z"/>
</g>
<g>
</g>
<g>
</g>
<g>
</g>
<g>
</g>
<g>
</g>
<g>
</g>
<g>
</g>
<g>
</g>
<g>
</g>
<g>
</g>
<g>
</g>
<g>
</g>
<g>
</g>
<g>
</g>
<g>
</g>
</svg>
